PathFileType	4	(X/Y/Z)	D:\TRACE\v60_Jaco2_6-2-23\JustBodyDRS_Motion2_9-v60.trc
DataRate	CameraRate	NumFrames	NumMarkers	Units	OrigDataRate	OrigDataStartFrame	OrigNumFrames
100.00	100.00	      27	9	mm	100.00	4310	      6895
Frame#	Time	front left toe			Front right toe			aft left toe			aft right toe			Arm			FL body			FR body			AL Body			AR Body			
		X1	Y1	Z1	X2	Y2	Z2	X3	Y3	Z3	X4	Y4	Z4	X5	Y5	Z5	X6	Y6	Z6	X7	Y7	Z7	X8	Y8	Z8	X9	Y9	Z9	

4310	43.090	-278.38187	44.00017	-227.36935	128.50897	55.15955	-251.25363	-205.78314	-15.53397	395.07813	106.30514	-19.85109	400.93051	-175.99915	1236.32690	-295.55637	-157.82957	606.40967	-351.98419	2.37458	605.27356	-359.52744	-113.82761	513.72418	588.74689	41.92234	506.59744	581.19659	
4311	43.100	-279.73013	43.84711	-227.57057	127.48994	49.37450	-254.34276	-206.51250	-18.46086	391.79700	105.79494	-19.55237	400.80280	-178.64023	1236.04028	-295.71451	-158.71187	606.23206	-353.33295	1.05750	605.76184	-361.02615	-112.83985	512.56274	587.23633	43.03207	505.96552	579.40247	
4312	43.110	-280.17703	43.44299	-227.79065	126.93699	46.45015	-257.14798	-209.17378	-17.03469	392.01605	105.16231	-18.86683	400.80859	-181.85925	1236.08960	-296.28549	-159.53084	606.04437	-354.61896	0.35248	605.54041	-362.90311	-111.59756	512.13947	585.66858	44.94159	506.04553	577.86548	
4313	43.120	-281.07953	42.85887	-227.86714	126.37373	43.63628	-257.46130	-210.14348	-19.03641	391.73318	103.96390	-18.60629	400.25885	-184.52148	1236.04529	-296.96732	-160.40285	605.81134	-356.03217	-0.38011	605.43939	-364.93533	-110.32967	513.23407	584.07837	45.43262	506.63879	575.55084	
4314	43.130	-282.25937	42.65151	-227.97623	125.96414	43.41720	-258.87646	-209.93388	-17.07771	392.87930	103.19719	-18.17300	400.05008	-186.66768	1236.13733	-298.43515	-161.64980	605.67767	-357.36993	-1.57508	605.98895	-366.65244	-109.59565	514.04333	582.87000	46.28456	507.85440	573.91925	
4315	43.140	-282.70560	45.06959	-229.49490	125.16889	41.95649	-258.07407	-210.30952	-17.51793	392.79053	102.58591	-15.87319	398.77847	-187.73651	1236.39539	-300.97934	-163.17337	606.06445	-358.40381	-2.84926	607.00610	-367.84232	-108.32722	514.83405	581.69922	47.31610	509.05292	572.60529	
4316	43.150	-278.11792	49.15428	-230.29962	123.79808	41.67797	-259.29761	-211.25072	-18.16466	392.40585	100.82538	-12.13160	398.99542	-189.43512	1236.98523	-303.92926	-164.27010	607.26105	-359.22577	-4.03177	607.78894	-369.05054	-107.51842	514.99017	580.57544	48.17731	509.11734	571.04279	
4317	43.160	-274.06879	52.56712	-227.51041	122.93572	41.61162	-259.29941	-211.70337	-17.64303	392.36417	98.17554	-8.73406	402.16895	-191.25764	1237.01025	-306.09845	-165.47063	608.00146	-360.46054	-5.40682	608.81921	-370.65604	-106.63316	515.05566	579.30896	49.19370	509.09586	569.30859	
4318	43.170	-271.70303	61.80404	-226.75435	121.54514	40.99108	-259.71857	-212.59160	-17.28843	392.15359	95.10662	1.16410	400.54575	-192.67143	1236.71729	-306.63788	-166.47102	608.26300	-361.72998	-6.42625	609.23853	-371.97324	-106.41701	515.17230	577.94720	49.34143	509.49310	568.02502	
4319	43.180	-272.35648	71.52070	-228.03615	120.83218	40.50044	-260.05908	-214.44260	-16.03111	391.97034	94.72640	12.18935	398.74225	-194.04953	1236.90979	-306.18378	-167.40298	608.05780	-363.07642	-8.03563	609.21338	-373.41125	-106.53996	515.48682	576.64209	49.28005	510.10535	566.65704	
4320	43.190	-274.53345	84.23632	-229.31406	120.28600	40.10250	-260.33008	-215.12573	-16.05241	391.72949	96.50639	26.09260	395.06259	-195.84941	1237.88025	-305.91309	-167.87099	607.65887	-363.96750	-8.25021	608.87805	-374.23203	-106.88881	515.56689	575.92706	49.29259	510.71399	566.03802	
4321	43.200	-276.77789	97.46405	-232.01675	118.75305	39.76711	-260.30743	-216.05098	-15.81288	391.95901	100.82833	38.77522	391.71313	-197.07950	1238.32312	-306.27402	-168.62003	607.71204	-364.96320	-8.92961	608.87408	-375.25674	-107.63745	515.47699	575.07806	47.96120	510.18625	564.57880	
4322	43.210	-279.36359	111.08895	-233.88242	117.90125	39.50698	-260.45886	-217.13181	-15.94843	391.49307	103.64243	50.89783	388.20163	-197.74304	1238.30029	-307.29703	-169.07649	607.88654	-365.81891	-9.25600	609.07312	-376.16428	-108.82633	515.22400	573.74750	46.91045	509.57910	563.69458	
4323	43.220	-281.22006	124.18958	-236.11598	116.88340	38.95121	-260.83429	-218.48982	-15.46425	391.58286	107.82768	64.02946	384.49911	-197.69452	1237.45044	-308.43103	-170.05330	607.88824	-366.71848	-9.89921	608.91461	-376.94992	-109.55640	514.47253	572.77747	46.06911	508.99298	563.05347	
4324	43.230	-282.77164	136.53973	-238.20161	115.82465	38.42820	-261.04745	-219.18433	-15.12055	391.60403	110.19531	75.12910	380.97714	-197.36482	1236.37793	-309.83109	-170.21873	607.84790	-367.14816	-10.83884	608.92004	-378.00009	-111.09792	513.95416	572.27551	45.24137	508.54941	562.65826	
4325	43.240	-283.71756	148.19258	-240.01936	115.11079	38.26197	-261.23053	-220.49881	-14.68005	391.14178	111.48188	85.63816	377.52203	-196.64056	1236.28552	-310.74149	-171.33150	607.60468	-368.11227	-11.42834	608.62866	-378.41006	-111.96114	513.94006	571.58319	43.93063	508.31830	561.56543	
4326	43.250	-284.50473	158.47214	-241.52734	113.85335	37.79845	-261.45319	-221.92462	-14.00645	391.04730	111.89977	95.73515	374.61053	-196.28737	1237.73218	-311.61844	-171.97186	607.20776	-368.76318	-12.12442	608.32831	-378.85992	-113.00201	514.09534	570.96271	42.57393	508.11865	561.23022	
4327	43.260	-285.37808	166.66464	-242.71957	112.75223	37.44675	-261.64389	-222.91220	-13.90237	390.92136	110.82890	104.38663	371.77338	-196.29259	1238.01550	-311.94934	-172.72426	607.19952	-369.10251	-12.64745	607.82166	-379.34409	-114.18670	514.30078	570.42023	41.31116	508.27170	560.96283	
4328	43.270	-286.99216	171.56085	-243.10426	111.63300	36.82988	-261.79166	-224.06705	-13.62354	390.89825	110.08041	109.94970	370.01953	-196.86211	1237.87683	-312.34464	-173.69067	606.78229	-369.82907	-13.62644	607.20398	-379.80090	-115.47722	514.28973	570.00348	40.63892	508.47223	560.36011	
4329	43.280	-288.35849	174.27280	-243.16472	110.57552	36.34764	-262.01245	-225.46860	-12.97229	390.70627	109.45489	112.07133	368.76230	-197.80267	1236.77283	-312.88904	-174.11914	606.63867	-370.24759	-14.34601	606.61987	-379.81302	-116.80787	515.22662	569.56219	38.64562	508.64978	560.17499	
4330	43.290	-289.48615	173.87755	-242.89433	109.50749	35.82840	-262.26563	-226.48921	-12.60040	390.45959	110.63584	111.21901	368.25684	-197.89899	1236.39868	-314.06491	-174.87747	606.52972	-370.72046	-15.05310	606.24829	-380.18219	-118.73149	515.56207	569.35474	37.67830	508.94995	560.13672	
4331	43.300	-290.90820	171.12338	-242.55281	108.19628	35.43301	-262.41748	-227.41223	-12.27849	390.38898	110.65311	107.33624	367.36649	-196.65317	1236.15405	-314.73511	-175.57564	606.52948	-370.91577	-16.04049	605.95703	-380.54996	-119.64240	515.66614	569.36273	36.10939	509.13989	559.90619	
4332	43.310	-291.63406	166.68153	-242.17096	107.39034	35.22762	-262.39966	-229.04077	-11.19493	390.09042	111.34710	102.83061	367.07236	-195.91542	1236.14905	-316.35535	-176.12888	606.38678	-371.35983	-16.48771	605.73334	-380.66565	-121.50957	516.61322	568.82385	34.43710	509.41434	559.74945	
4333	43.320	-292.03198	161.47113	-242.11458	106.05849	34.63890	-262.68356	-230.17595	-10.87654	389.93442	111.44778	97.43323	366.86697	-195.16110	1236.33533	-317.72949	-176.92049	606.13916	-371.78632	-16.56068	605.19269	-381.02884	-122.86949	517.12390	568.58948	33.54212	509.96994	559.71204	
4334	43.330	-292.00476	154.15186	-241.82349	105.07254	34.12536	-262.84793	-231.45258	-10.27115	389.93472	112.32163	91.26892	366.68481	-194.97850	1236.29761	-318.54022	-177.78452	605.91583	-372.33167	-17.66582	604.67889	-381.44513	-124.46092	517.70062	568.31897	31.64052	510.13007	559.58844	
4335	43.340	-292.07748	144.65726	-241.92624	103.74949	33.56570	-263.15994	-232.49831	-9.81568	389.50781	112.66705	84.40000	366.55630	-194.68724	1236.45300	-319.49344	-178.52283	605.82336	-372.66772	-18.61477	604.16742	-382.18817	-125.65656	518.54700	568.10498	30.02644	510.62454	559.11041	
4336	43.350	-292.51596	134.68945	-241.87262	102.65678	33.10405	-263.27808	-233.80728	-9.14169	389.15741	112.47964	75.73981	365.94937	-194.84315	1236.28247	-320.28369	-179.13004	605.47760	-373.06326	-18.86829	603.65576	-382.09134	-126.83117	518.73163	568.00128	29.13467	510.95035	559.07666	
